<mxfile host="app.diagrams.net" modified="2021-10-31T06:25:46.358Z" agent="5.0 (Macintosh; Intel Mac OS X 10_15_7) AppleWebKit/537.36 (KHTML, like Gecko) Chrome/95.0.4638.69 Safari/537.36" etag="77-PcZIifuPRRP_puoEH" version="15.6.2" type="github">
  <diagram id="vafrQ6hNdpZk67Zdjrm1" name="Page-1">
    <mxGraphModel dx="855" dy="449" grid="1" gridSize="10" guides="1" tooltips="1" connect="1" arrows="1" fold="1" page="1" pageScale="1" pageWidth="827" pageHeight="1169" math="0" shadow="0">
      <root>
        <mxCell id="0" />
        <mxCell id="1" parent="0" />
        <mxCell id="W4wYwyPfHBZKXDtX2ANJ-1" value="" style="rounded=0;whiteSpace=wrap;html=1;" vertex="1" parent="1">
          <mxGeometry x="190" y="40" width="400" height="380" as="geometry" />
        </mxCell>
        <mxCell id="W4wYwyPfHBZKXDtX2ANJ-2" value="" style="endArrow=none;dashed=1;html=1;rounded=0;exitX=-0.002;exitY=0.108;exitDx=0;exitDy=0;exitPerimeter=0;entryX=1;entryY=0.105;entryDx=0;entryDy=0;entryPerimeter=0;" edge="1" parent="1" source="W4wYwyPfHBZKXDtX2ANJ-1" target="W4wYwyPfHBZKXDtX2ANJ-1">
          <mxGeometry width="50" height="50" relative="1" as="geometry">
            <mxPoint x="410" y="260" as="sourcePoint" />
            <mxPoint x="460" y="210" as="targetPoint" />
          </mxGeometry>
        </mxCell>
        <mxCell id="W4wYwyPfHBZKXDtX2ANJ-4" value="" style="endArrow=none;dashed=1;html=1;rounded=0;exitX=0.003;exitY=0.313;exitDx=0;exitDy=0;exitPerimeter=0;entryX=1.003;entryY=0.313;entryDx=0;entryDy=0;entryPerimeter=0;" edge="1" parent="1" source="W4wYwyPfHBZKXDtX2ANJ-1" target="W4wYwyPfHBZKXDtX2ANJ-1">
          <mxGeometry width="50" height="50" relative="1" as="geometry">
            <mxPoint x="410" y="260" as="sourcePoint" />
            <mxPoint x="460" y="210" as="targetPoint" />
          </mxGeometry>
        </mxCell>
        <mxCell id="W4wYwyPfHBZKXDtX2ANJ-5" value="" style="endArrow=classic;html=1;rounded=0;entryX=1.01;entryY=0.066;entryDx=0;entryDy=0;entryPerimeter=0;" edge="1" parent="1" target="W4wYwyPfHBZKXDtX2ANJ-1">
          <mxGeometry width="50" height="50" relative="1" as="geometry">
            <mxPoint x="680" y="65" as="sourcePoint" />
            <mxPoint x="460" y="210" as="targetPoint" />
          </mxGeometry>
        </mxCell>
        <mxCell id="W4wYwyPfHBZKXDtX2ANJ-6" value="Status Bar" style="text;html=1;align=center;verticalAlign=middle;resizable=0;points=[];autosize=1;strokeColor=none;fillColor=none;" vertex="1" parent="1">
          <mxGeometry x="685" y="50" width="70" height="20" as="geometry" />
        </mxCell>
        <mxCell id="W4wYwyPfHBZKXDtX2ANJ-7" value="" style="endArrow=classic;html=1;rounded=0;entryX=1.01;entryY=0.066;entryDx=0;entryDy=0;entryPerimeter=0;" edge="1" parent="1">
          <mxGeometry width="50" height="50" relative="1" as="geometry">
            <mxPoint x="690" y="117" as="sourcePoint" />
            <mxPoint x="604" y="117.08000000000004" as="targetPoint" />
          </mxGeometry>
        </mxCell>
        <mxCell id="W4wYwyPfHBZKXDtX2ANJ-8" value="App Bar" style="text;html=1;align=center;verticalAlign=middle;resizable=0;points=[];autosize=1;strokeColor=none;fillColor=none;" vertex="1" parent="1">
          <mxGeometry x="700" y="100" width="60" height="20" as="geometry" />
        </mxCell>
        <mxCell id="W4wYwyPfHBZKXDtX2ANJ-9" value="" style="endArrow=classic;html=1;rounded=0;entryX=1.01;entryY=0.066;entryDx=0;entryDy=0;entryPerimeter=0;" edge="1" parent="1">
          <mxGeometry width="50" height="50" relative="1" as="geometry">
            <mxPoint x="700" y="199" as="sourcePoint" />
            <mxPoint x="614" y="199.08000000000004" as="targetPoint" />
          </mxGeometry>
        </mxCell>
        <mxCell id="W4wYwyPfHBZKXDtX2ANJ-10" value="Body" style="text;html=1;align=center;verticalAlign=middle;resizable=0;points=[];autosize=1;strokeColor=none;fillColor=none;" vertex="1" parent="1">
          <mxGeometry x="730" y="200" width="40" height="20" as="geometry" />
        </mxCell>
      </root>
    </mxGraphModel>
  </diagram>
</mxfile>
